<svg width="80" height="148" viewBox="0 0 80 148" fill="none" xmlns="http://www.w3.org/2000/svg">
<rect width="80" height="34" fill="#3F3D56"/>
<rect y="38" width="80" height="34" fill="#EE24FF"/>
<rect y="76" width="80" height="34" fill="#828282"/>
<rect y="114" width="80" height="34" fill="#ECEFF2"/>
<path d="M25.166 15.3496C25.166 15.7441 25.084 16.0859 24.9199 16.375C24.7559 16.6641 24.5332 16.9004 24.252 17.084C23.9746 17.2676 23.6621 17.4023 23.3145 17.4883V17.5234C24.002 17.6094 24.5234 17.8203 24.8789 18.1562C25.2383 18.4922 25.418 18.9414 25.418 19.5039C25.418 20.0039 25.2949 20.4512 25.0488 20.8457C24.8066 21.2402 24.4316 21.5508 23.9238 21.7773C23.416 22.0039 22.7617 22.1172 21.9609 22.1172C21.4883 22.1172 21.0469 22.0781 20.6367 22C20.2305 21.9258 19.8477 21.8105 19.4883 21.6543V20.1133C19.8555 20.3008 20.2402 20.4434 20.6426 20.541C21.0449 20.6348 21.4199 20.6816 21.7676 20.6816C22.416 20.6816 22.8691 20.5703 23.127 20.3477C23.3887 20.1211 23.5195 19.8047 23.5195 19.3984C23.5195 19.1602 23.459 18.959 23.3379 18.7949C23.2168 18.6309 23.0059 18.5059 22.7051 18.4199C22.4082 18.334 21.9922 18.291 21.457 18.291H20.8066V16.9023H21.4688C21.9961 16.9023 22.3965 16.8535 22.6699 16.7559C22.9473 16.6543 23.1348 16.5176 23.2324 16.3457C23.334 16.1699 23.3848 15.9707 23.3848 15.748C23.3848 15.4434 23.291 15.2051 23.1035 15.0332C22.916 14.8613 22.6035 14.7754 22.166 14.7754C21.8926 14.7754 21.6426 14.8105 21.416 14.8809C21.1934 14.9473 20.9922 15.0293 20.8125 15.127C20.6328 15.2207 20.4746 15.3125 20.3379 15.4023L19.5 14.1543C19.8359 13.9121 20.2285 13.7109 20.6777 13.5508C21.1309 13.3906 21.6699 13.3105 22.2949 13.3105C23.1777 13.3105 23.877 13.4883 24.3926 13.8438C24.9082 14.1992 25.166 14.7012 25.166 15.3496ZM28.7637 22H26.9766V13.4336H31.8867V14.9219H28.7637V17.1309H31.6699V18.6133H28.7637V22ZM38.6191 15.3496C38.6191 15.7441 38.5371 16.0859 38.373 16.375C38.209 16.6641 37.9863 16.9004 37.7051 17.084C37.4277 17.2676 37.1152 17.4023 36.7676 17.4883V17.5234C37.4551 17.6094 37.9766 17.8203 38.332 18.1562C38.6914 18.4922 38.8711 18.9414 38.8711 19.5039C38.8711 20.0039 38.748 20.4512 38.502 20.8457C38.2598 21.2402 37.8848 21.5508 37.377 21.7773C36.8691 22.0039 36.2148 22.1172 35.4141 22.1172C34.9414 22.1172 34.5 22.0781 34.0898 22C33.6836 21.9258 33.3008 21.8105 32.9414 21.6543V20.1133C33.3086 20.3008 33.6934 20.4434 34.0957 20.541C34.498 20.6348 34.873 20.6816 35.2207 20.6816C35.8691 20.6816 36.3223 20.5703 36.5801 20.3477C36.8418 20.1211 36.9727 19.8047 36.9727 19.3984C36.9727 19.1602 36.9121 18.959 36.791 18.7949C36.6699 18.6309 36.459 18.5059 36.1582 18.4199C35.8613 18.334 35.4453 18.291 34.9102 18.291H34.2598V16.9023H34.9219C35.4492 16.9023 35.8496 16.8535 36.123 16.7559C36.4004 16.6543 36.5879 16.5176 36.6855 16.3457C36.7871 16.1699 36.8379 15.9707 36.8379 15.748C36.8379 15.4434 36.7441 15.2051 36.5566 15.0332C36.3691 14.8613 36.0566 14.7754 35.6191 14.7754C35.3457 14.7754 35.0957 14.8105 34.8691 14.8809C34.6465 14.9473 34.4453 15.0293 34.2656 15.127C34.0859 15.2207 33.9277 15.3125 33.791 15.4023L32.9531 14.1543C33.2891 13.9121 33.6816 13.7109 34.1309 13.5508C34.584 13.3906 35.123 13.3105 35.748 13.3105C36.6309 13.3105 37.3301 13.4883 37.8457 13.8438C38.3613 14.1992 38.6191 14.7012 38.6191 15.3496ZM47.5371 17.6348C47.5371 18.5996 47.3516 19.4062 46.9805 20.0547C46.6133 20.6992 46.0801 21.1855 45.3809 21.5137C44.6816 21.8379 43.8398 22 42.8555 22H40.4297V13.4336H43.1191C44.0176 13.4336 44.7969 13.5938 45.457 13.9141C46.1172 14.2305 46.6289 14.7012 46.9922 15.3262C47.3555 15.9473 47.5371 16.7168 47.5371 17.6348ZM45.6504 17.6816C45.6504 17.0488 45.5566 16.5293 45.3691 16.123C45.1855 15.7129 44.9121 15.4102 44.5488 15.2148C44.1895 15.0195 43.7441 14.9219 43.2129 14.9219H42.2461V20.5H43.0254C43.9121 20.5 44.5703 20.2637 45 19.791C45.4336 19.3184 45.6504 18.6152 45.6504 17.6816ZM51.832 16.5273C52.3555 16.5273 52.8203 16.627 53.2266 16.8262C53.6367 17.0254 53.959 17.3184 54.1934 17.7051C54.4277 18.0918 54.5449 18.5684 54.5449 19.1348C54.5449 19.752 54.416 20.2852 54.1582 20.7344C53.9043 21.1797 53.5234 21.5215 53.0156 21.7598C52.5117 21.998 51.8828 22.1172 51.1289 22.1172C50.6797 22.1172 50.2559 22.0781 49.8574 22C49.4629 21.9258 49.1172 21.8105 48.8203 21.6543V20.0898C49.1172 20.2461 49.4727 20.3789 49.8867 20.4883C50.3047 20.5938 50.6973 20.6465 51.0645 20.6465C51.4238 20.6465 51.7266 20.5996 51.9727 20.5059C52.2188 20.4082 52.4043 20.2598 52.5293 20.0605C52.6582 19.8574 52.7227 19.5996 52.7227 19.2871C52.7227 18.8691 52.582 18.5488 52.3008 18.3262C52.0195 18.1035 51.5879 17.9922 51.0059 17.9922C50.7832 17.9922 50.5508 18.0137 50.3086 18.0566C50.0703 18.0996 49.8711 18.1426 49.7109 18.1855L48.9902 17.7988L49.3125 13.4336H53.959V14.9688H50.9004L50.7422 16.6504C50.875 16.623 51.0195 16.5957 51.1758 16.5684C51.332 16.541 51.5508 16.5273 51.832 16.5273ZM55.5234 18.3613C55.5234 17.8691 55.5586 17.3828 55.6289 16.9023C55.7031 16.418 55.8301 15.9629 56.0098 15.5371C56.1895 15.1074 56.4414 14.7285 56.7656 14.4004C57.0898 14.0684 57.502 13.8086 58.002 13.6211C58.502 13.4297 59.1074 13.334 59.8184 13.334C59.9863 13.334 60.1816 13.3418 60.4043 13.3574C60.6309 13.3691 60.8184 13.3906 60.9668 13.4219V14.8691C60.8105 14.834 60.6426 14.8066 60.4629 14.7871C60.2871 14.7637 60.1113 14.752 59.9355 14.752C59.2246 14.752 58.6738 14.8652 58.2832 15.0918C57.8965 15.3184 57.623 15.6328 57.4629 16.0352C57.3066 16.4336 57.2148 16.8984 57.1875 17.4297H57.2637C57.373 17.2383 57.5098 17.0684 57.6738 16.9199C57.8418 16.7715 58.0449 16.6543 58.2832 16.5684C58.5215 16.4785 58.8008 16.4336 59.1211 16.4336C59.6211 16.4336 60.0547 16.541 60.4219 16.7559C60.7891 16.9668 61.0723 17.2734 61.2715 17.6758C61.4707 18.0781 61.5703 18.5684 61.5703 19.1465C61.5703 19.7637 61.4512 20.2949 61.2129 20.7402C60.9746 21.1855 60.6367 21.5273 60.1992 21.7656C59.7656 22 59.25 22.1172 58.6523 22.1172C58.2148 22.1172 57.8066 22.043 57.4277 21.8945C57.0488 21.7422 56.7168 21.5117 56.4316 21.2031C56.1465 20.8945 55.9238 20.5059 55.7637 20.0371C55.6035 19.5645 55.5234 19.0059 55.5234 18.3613ZM58.6172 20.6699C58.9727 20.6699 59.2617 20.5488 59.4844 20.3066C59.707 20.0645 59.8184 19.6855 59.8184 19.1699C59.8184 18.752 59.7207 18.4238 59.5254 18.1855C59.334 17.9434 59.043 17.8223 58.6523 17.8223C58.3867 17.8223 58.1523 17.8828 57.9492 18.0039C57.75 18.1211 57.5957 18.2715 57.4863 18.4551C57.377 18.6348 57.3223 18.8203 57.3223 19.0117C57.3223 19.2109 57.3496 19.4082 57.4043 19.6035C57.459 19.7988 57.541 19.9766 57.6504 20.1367C57.7598 20.2969 57.8945 20.4258 58.0547 20.5234C58.2188 20.6211 58.4062 20.6699 58.6172 20.6699Z" fill="white"/>
<path d="M26.332 60H21.3984V51.4336H26.332V52.9219H23.2148V54.8027H26.1152V56.291H23.2148V58.5H26.332V60ZM33.0586 60H28.125V51.4336H33.0586V52.9219H29.9414V54.8027H32.8418V56.291H29.9414V58.5H33.0586V60ZM40.2422 60H34.2539V58.7402L36.4043 56.5664C36.8379 56.1211 37.1855 55.75 37.4473 55.4531C37.7129 55.1523 37.9043 54.8789 38.0215 54.6328C38.1426 54.3867 38.2031 54.123 38.2031 53.8418C38.2031 53.502 38.1074 53.248 37.916 53.0801C37.7285 52.9082 37.4766 52.8223 37.1602 52.8223C36.8281 52.8223 36.5059 52.8984 36.1934 53.0508C35.8809 53.2031 35.5547 53.4199 35.2148 53.7012L34.2305 52.5352C34.4766 52.3242 34.7363 52.125 35.0098 51.9375C35.2871 51.75 35.6074 51.5996 35.9707 51.4863C36.3379 51.3691 36.7773 51.3105 37.2891 51.3105C37.8516 51.3105 38.334 51.4121 38.7363 51.6152C39.1426 51.8184 39.4551 52.0957 39.6738 52.4473C39.8926 52.7949 40.002 53.1895 40.002 53.6309C40.002 54.1035 39.9082 54.5352 39.7207 54.9258C39.5332 55.3164 39.2598 55.7031 38.9004 56.0859C38.5449 56.4688 38.1152 56.8926 37.6113 57.3574L36.5098 58.3945V58.4766H40.2422V60ZM47.3027 58.2246H46.2715V60H44.502V58.2246H40.8457V56.9648L44.6016 51.4336H46.2715V56.8184H47.3027V58.2246ZM44.502 56.8184V55.3652C44.502 55.2285 44.5039 55.0664 44.5078 54.8789C44.5156 54.6914 44.5234 54.5039 44.5312 54.3164C44.5391 54.1289 44.5469 53.9629 44.5547 53.8184C44.5664 53.6699 44.5742 53.5664 44.5781 53.5078H44.5312C44.457 53.668 44.3789 53.8242 44.2969 53.9766C44.2148 54.125 44.1191 54.2812 44.0098 54.4453L42.4395 56.8184H44.502ZM50.373 60H48.5859V51.4336H53.4961V52.9219H50.373V55.1309H53.2793V56.6133H50.373V60ZM56.959 60H55.1719V51.4336H60.082V52.9219H56.959V55.1309H59.8652V56.6133H56.959V60Z" fill="white"/>
<path d="M22.832 89.3223C23.3242 89.3223 23.7773 89.3984 24.1914 89.5508C24.6094 89.7031 24.9434 89.9336 25.1934 90.2422C25.4434 90.5469 25.5684 90.9297 25.5684 91.3906C25.5684 91.7344 25.5 92.0352 25.3633 92.293C25.2305 92.5508 25.0488 92.7773 24.8184 92.9727C24.5879 93.1641 24.3262 93.332 24.0332 93.4766C24.3379 93.6367 24.627 93.8242 24.9004 94.0391C25.1738 94.25 25.3965 94.498 25.5684 94.7832C25.7441 95.0684 25.832 95.4004 25.832 95.7793C25.832 96.2559 25.7051 96.6699 25.4512 97.0215C25.1973 97.3691 24.8457 97.6387 24.3965 97.8301C23.9473 98.0215 23.4258 98.1172 22.832 98.1172C22.1914 98.1172 21.6465 98.0254 21.1973 97.8418C20.748 97.6582 20.4062 97.3965 20.1719 97.0566C19.9375 96.7129 19.8203 96.3027 19.8203 95.8262C19.8203 95.4355 19.8926 95.0957 20.0371 94.8066C20.1855 94.5176 20.3848 94.2695 20.6348 94.0625C20.8848 93.8516 21.1602 93.6719 21.4609 93.5234C21.207 93.3633 20.9746 93.1816 20.7637 92.9785C20.5566 92.7754 20.3906 92.543 20.2656 92.2812C20.1445 92.0195 20.084 91.7188 20.084 91.3789C20.084 90.9258 20.2109 90.5469 20.4648 90.2422C20.7227 89.9375 21.0605 89.709 21.4785 89.5566C21.8965 89.4004 22.3477 89.3223 22.832 89.3223ZM21.4961 95.7207C21.4961 96.0293 21.6055 96.2852 21.8242 96.4883C22.0469 96.6875 22.375 96.7871 22.8086 96.7871C23.2578 96.7871 23.5938 96.6914 23.8164 96.5C24.0391 96.3047 24.1504 96.0488 24.1504 95.7324C24.1504 95.5137 24.0859 95.3223 23.957 95.1582C23.832 94.9941 23.6738 94.8477 23.4824 94.7188C23.291 94.5859 23.0977 94.4629 22.9023 94.3496L22.7441 94.2676C22.4941 94.3809 22.2754 94.5078 22.0879 94.6484C21.9043 94.7891 21.7598 94.9473 21.6543 95.123C21.5488 95.2988 21.4961 95.498 21.4961 95.7207ZM22.8203 90.6465C22.5234 90.6465 22.2773 90.7227 22.082 90.875C21.8867 91.0273 21.7891 91.2422 21.7891 91.5195C21.7891 91.7148 21.8359 91.8867 21.9297 92.0352C22.0273 92.1797 22.1543 92.3066 22.3105 92.416C22.4707 92.5254 22.6445 92.627 22.832 92.7207C23.0117 92.6348 23.1797 92.5391 23.3359 92.4336C23.4922 92.3281 23.6191 92.2012 23.7168 92.0527C23.8145 91.9043 23.8633 91.7266 23.8633 91.5195C23.8633 91.2422 23.7637 91.0273 23.5645 90.875C23.3691 90.7227 23.1211 90.6465 22.8203 90.6465ZM32.7344 98H26.7461V96.7402L28.8965 94.5664C29.3301 94.1211 29.6777 93.75 29.9395 93.4531C30.2051 93.1523 30.3965 92.8789 30.5137 92.6328C30.6348 92.3867 30.6953 92.123 30.6953 91.8418C30.6953 91.502 30.5996 91.248 30.4082 91.0801C30.2207 90.9082 29.9688 90.8223 29.6523 90.8223C29.3203 90.8223 28.998 90.8984 28.6855 91.0508C28.373 91.2031 28.0469 91.4199 27.707 91.7012L26.7227 90.5352C26.9688 90.3242 27.2285 90.125 27.502 89.9375C27.7793 89.75 28.0996 89.5996 28.4629 89.4863C28.8301 89.3691 29.2695 89.3105 29.7812 89.3105C30.3438 89.3105 30.8262 89.4121 31.2285 89.6152C31.6348 89.8184 31.9473 90.0957 32.166 90.4473C32.3848 90.7949 32.4941 91.1895 32.4941 91.6309C32.4941 92.1035 32.4004 92.5352 32.2129 92.9258C32.0254 93.3164 31.752 93.7031 31.3926 94.0859C31.0371 94.4688 30.6074 94.8926 30.1035 95.3574L29.002 96.3945V96.4766H32.7344V98ZM36.5664 89.3223C37.0586 89.3223 37.5117 89.3984 37.9258 89.5508C38.3438 89.7031 38.6777 89.9336 38.9277 90.2422C39.1777 90.5469 39.3027 90.9297 39.3027 91.3906C39.3027 91.7344 39.2344 92.0352 39.0977 92.293C38.9648 92.5508 38.7832 92.7773 38.5527 92.9727C38.3223 93.1641 38.0605 93.332 37.7676 93.4766C38.0723 93.6367 38.3613 93.8242 38.6348 94.0391C38.9082 94.25 39.1309 94.498 39.3027 94.7832C39.4785 95.0684 39.5664 95.4004 39.5664 95.7793C39.5664 96.2559 39.4395 96.6699 39.1855 97.0215C38.9316 97.3691 38.5801 97.6387 38.1309 97.8301C37.6816 98.0215 37.1602 98.1172 36.5664 98.1172C35.9258 98.1172 35.3809 98.0254 34.9316 97.8418C34.4824 97.6582 34.1406 97.3965 33.9062 97.0566C33.6719 96.7129 33.5547 96.3027 33.5547 95.8262C33.5547 95.4355 33.627 95.0957 33.7715 94.8066C33.9199 94.5176 34.1191 94.2695 34.3691 94.0625C34.6191 93.8516 34.8945 93.6719 35.1953 93.5234C34.9414 93.3633 34.709 93.1816 34.498 92.9785C34.291 92.7754 34.125 92.543 34 92.2812C33.8789 92.0195 33.8184 91.7188 33.8184 91.3789C33.8184 90.9258 33.9453 90.5469 34.1992 90.2422C34.457 89.9375 34.7949 89.709 35.2129 89.5566C35.6309 89.4004 36.082 89.3223 36.5664 89.3223ZM35.2305 95.7207C35.2305 96.0293 35.3398 96.2852 35.5586 96.4883C35.7812 96.6875 36.1094 96.7871 36.543 96.7871C36.9922 96.7871 37.3281 96.6914 37.5508 96.5C37.7734 96.3047 37.8848 96.0488 37.8848 95.7324C37.8848 95.5137 37.8203 95.3223 37.6914 95.1582C37.5664 94.9941 37.4082 94.8477 37.2168 94.7188C37.0254 94.5859 36.832 94.4629 36.6367 94.3496L36.4785 94.2676C36.2285 94.3809 36.0098 94.5078 35.8223 94.6484C35.6387 94.7891 35.4941 94.9473 35.3887 95.123C35.2832 95.2988 35.2305 95.498 35.2305 95.7207ZM36.5547 90.6465C36.2578 90.6465 36.0117 90.7227 35.8164 90.875C35.6211 91.0273 35.5234 91.2422 35.5234 91.5195C35.5234 91.7148 35.5703 91.8867 35.6641 92.0352C35.7617 92.1797 35.8887 92.3066 36.0449 92.416C36.2051 92.5254 36.3789 92.627 36.5664 92.7207C36.7461 92.6348 36.9141 92.5391 37.0703 92.4336C37.2266 92.3281 37.3535 92.2012 37.4512 92.0527C37.5488 91.9043 37.5977 91.7266 37.5977 91.5195C37.5977 91.2422 37.498 91.0273 37.2988 90.875C37.1035 90.7227 36.8555 90.6465 36.5547 90.6465ZM46.4688 98H40.4805V96.7402L42.6309 94.5664C43.0645 94.1211 43.4121 93.75 43.6738 93.4531C43.9395 93.1523 44.1309 92.8789 44.248 92.6328C44.3691 92.3867 44.4297 92.123 44.4297 91.8418C44.4297 91.502 44.334 91.248 44.1426 91.0801C43.9551 90.9082 43.7031 90.8223 43.3867 90.8223C43.0547 90.8223 42.7324 90.8984 42.4199 91.0508C42.1074 91.2031 41.7812 91.4199 41.4414 91.7012L40.457 90.5352C40.7031 90.3242 40.9629 90.125 41.2363 89.9375C41.5137 89.75 41.834 89.5996 42.1973 89.4863C42.5645 89.3691 43.0039 89.3105 43.5156 89.3105C44.0781 89.3105 44.5605 89.4121 44.9629 89.6152C45.3691 89.8184 45.6816 90.0957 45.9004 90.4473C46.1191 90.7949 46.2285 91.1895 46.2285 91.6309C46.2285 92.1035 46.1348 92.5352 45.9473 92.9258C45.7598 93.3164 45.4863 93.7031 45.127 94.0859C44.7715 94.4688 44.3418 94.8926 43.8379 95.3574L42.7363 96.3945V96.4766H46.4688V98ZM50.3008 89.3223C50.793 89.3223 51.2461 89.3984 51.6602 89.5508C52.0781 89.7031 52.4121 89.9336 52.6621 90.2422C52.9121 90.5469 53.0371 90.9297 53.0371 91.3906C53.0371 91.7344 52.9688 92.0352 52.832 92.293C52.6992 92.5508 52.5176 92.7773 52.2871 92.9727C52.0566 93.1641 51.7949 93.332 51.502 93.4766C51.8066 93.6367 52.0957 93.8242 52.3691 94.0391C52.6426 94.25 52.8652 94.498 53.0371 94.7832C53.2129 95.0684 53.3008 95.4004 53.3008 95.7793C53.3008 96.2559 53.1738 96.6699 52.9199 97.0215C52.666 97.3691 52.3145 97.6387 51.8652 97.8301C51.416 98.0215 50.8945 98.1172 50.3008 98.1172C49.6602 98.1172 49.1152 98.0254 48.666 97.8418C48.2168 97.6582 47.875 97.3965 47.6406 97.0566C47.4062 96.7129 47.2891 96.3027 47.2891 95.8262C47.2891 95.4355 47.3613 95.0957 47.5059 94.8066C47.6543 94.5176 47.8535 94.2695 48.1035 94.0625C48.3535 93.8516 48.6289 93.6719 48.9297 93.5234C48.6758 93.3633 48.4434 93.1816 48.2324 92.9785C48.0254 92.7754 47.8594 92.543 47.7344 92.2812C47.6133 92.0195 47.5527 91.7188 47.5527 91.3789C47.5527 90.9258 47.6797 90.5469 47.9336 90.2422C48.1914 89.9375 48.5293 89.709 48.9473 89.5566C49.3652 89.4004 49.8164 89.3223 50.3008 89.3223ZM48.9648 95.7207C48.9648 96.0293 49.0742 96.2852 49.293 96.4883C49.5156 96.6875 49.8438 96.7871 50.2773 96.7871C50.7266 96.7871 51.0625 96.6914 51.2852 96.5C51.5078 96.3047 51.6191 96.0488 51.6191 95.7324C51.6191 95.5137 51.5547 95.3223 51.4258 95.1582C51.3008 94.9941 51.1426 94.8477 50.9512 94.7188C50.7598 94.5859 50.5664 94.4629 50.3711 94.3496L50.2129 94.2676C49.9629 94.3809 49.7441 94.5078 49.5566 94.6484C49.373 94.7891 49.2285 94.9473 49.123 95.123C49.0176 95.2988 48.9648 95.498 48.9648 95.7207ZM50.2891 90.6465C49.9922 90.6465 49.7461 90.7227 49.5508 90.875C49.3555 91.0273 49.2578 91.2422 49.2578 91.5195C49.2578 91.7148 49.3047 91.8867 49.3984 92.0352C49.4961 92.1797 49.623 92.3066 49.7793 92.416C49.9395 92.5254 50.1133 92.627 50.3008 92.7207C50.4805 92.6348 50.6484 92.5391 50.8047 92.4336C50.9609 92.3281 51.0879 92.2012 51.1855 92.0527C51.2832 91.9043 51.332 91.7266 51.332 91.5195C51.332 91.2422 51.2324 91.0273 51.0332 90.875C50.8379 90.7227 50.5898 90.6465 50.2891 90.6465ZM60.2031 98H54.2148V96.7402L56.3652 94.5664C56.7988 94.1211 57.1465 93.75 57.4082 93.4531C57.6738 93.1523 57.8652 92.8789 57.9824 92.6328C58.1035 92.3867 58.1641 92.123 58.1641 91.8418C58.1641 91.502 58.0684 91.248 57.877 91.0801C57.6895 90.9082 57.4375 90.8223 57.1211 90.8223C56.7891 90.8223 56.4668 90.8984 56.1543 91.0508C55.8418 91.2031 55.5156 91.4199 55.1758 91.7012L54.1914 90.5352C54.4375 90.3242 54.6973 90.125 54.9707 89.9375C55.248 89.75 55.5684 89.5996 55.9316 89.4863C56.2988 89.3691 56.7383 89.3105 57.25 89.3105C57.8125 89.3105 58.2949 89.4121 58.6973 89.6152C59.1035 89.8184 59.416 90.0957 59.6348 90.4473C59.8535 90.7949 59.9629 91.1895 59.9629 91.6309C59.9629 92.1035 59.8691 92.5352 59.6816 92.9258C59.4941 93.3164 59.2207 93.7031 58.8613 94.0859C58.5059 94.4688 58.0762 94.8926 57.5723 95.3574L56.4707 96.3945V96.4766H60.2031V98Z" fill="white"/>
<path d="M26.4395 136H21.5059V127.434H26.4395V128.922H23.3223V130.803H26.2227V132.291H23.3223V134.5H26.4395V136ZM31.8711 128.822C31.5234 128.822 31.2148 128.891 30.9453 129.027C30.6797 129.16 30.4551 129.354 30.2715 129.607C30.0918 129.861 29.9551 130.168 29.8613 130.527C29.7676 130.887 29.7207 131.291 29.7207 131.74C29.7207 132.346 29.7949 132.863 29.9434 133.293C30.0957 133.719 30.3301 134.045 30.6465 134.271C30.9629 134.494 31.3711 134.605 31.8711 134.605C32.2188 134.605 32.5664 134.566 32.9141 134.488C33.2656 134.41 33.6465 134.299 34.0566 134.154V135.678C33.6777 135.834 33.3047 135.945 32.9375 136.012C32.5703 136.082 32.1582 136.117 31.7012 136.117C30.8184 136.117 30.0918 135.936 29.5215 135.572C28.9551 135.205 28.5352 134.693 28.2617 134.037C27.9883 133.377 27.8516 132.607 27.8516 131.729C27.8516 131.08 27.9395 130.486 28.1152 129.947C28.291 129.408 28.5488 128.941 28.8887 128.547C29.2285 128.152 29.6484 127.848 30.1484 127.633C30.6484 127.418 31.2227 127.311 31.8711 127.311C32.2969 127.311 32.7227 127.365 33.1484 127.475C33.5781 127.58 33.9883 127.727 34.3789 127.914L33.793 129.391C33.4727 129.238 33.1504 129.105 32.8262 128.992C32.502 128.879 32.1836 128.822 31.8711 128.822ZM40.8184 136H35.8848V127.434H40.8184V128.922H37.7012V130.803H40.6016V132.291H37.7012V134.5H40.8184V136ZM44.3984 136H42.6113V127.434H47.5215V128.922H44.3984V131.131H47.3047V132.613H44.3984V136ZM50.9844 136H49.1973V127.434H54.1074V128.922H50.9844V131.131H53.8906V132.613H50.9844V136ZM61.1738 136H55.1855V134.74L57.3359 132.566C57.7695 132.121 58.1172 131.75 58.3789 131.453C58.6445 131.152 58.8359 130.879 58.9531 130.633C59.0742 130.387 59.1348 130.123 59.1348 129.842C59.1348 129.502 59.0391 129.248 58.8477 129.08C58.6602 128.908 58.4082 128.822 58.0918 128.822C57.7598 128.822 57.4375 128.898 57.125 129.051C56.8125 129.203 56.4863 129.42 56.1465 129.701L55.1621 128.535C55.4082 128.324 55.668 128.125 55.9414 127.938C56.2188 127.75 56.5391 127.6 56.9023 127.486C57.2695 127.369 57.709 127.311 58.2207 127.311C58.7832 127.311 59.2656 127.412 59.668 127.615C60.0742 127.818 60.3867 128.096 60.6055 128.447C60.8242 128.795 60.9336 129.189 60.9336 129.631C60.9336 130.104 60.8398 130.535 60.6523 130.926C60.4648 131.316 60.1914 131.703 59.832 132.086C59.4766 132.469 59.0469 132.893 58.543 133.357L57.4414 134.395V134.477H61.1738V136Z" fill="#828282"/>
</svg>
